<svg xmlns="http://www.w3.org/2000/svg" xmlns:xlink="http://www.w3.org/1999/xlink" version="1.1" id="Layer_1" x="0px" y="0px" viewBox="0 0 98.6 100" style="enable-background:new 0 0 98.6 100;" xml:space="preserve">
<style type="text/css">
	.st0{fill:#E9E9E9;}
</style>
<g id="XMLID_4_">
	<g id="XMLID_5_">
		<path id="XMLID_68_" class="st0" d="M65.9,65v-3.1H39.7l1.7-3.1l25.7-2.4l4.6-16.8H37.3l-1.9-8.4H27V34h6.2L39,57.5l-3.6,7.2v4.1    c0,2.2,1.9,4.1,4.1,4.1s4.1-1.9,4.1-4.1c0-2.2-1.9-4.1-4.1-4.1h20.9v4.1c0,2.2,1.9,4.1,4.1,4.1c2.2,0,4.1-1.9,4.1-4.1    C68.8,66.9,67.6,65.5,65.9,65L65.9,65z M38,42.4h29.8l-3.1,11.1l-23.5,2.4L38,42.4z"/>
	</g>
</g>
<g id="XMLID_33_">
	<g id="XMLID_32_">
		<g id="XMLID_31_">
			<path id="XMLID_87_" class="st0" d="M49.1,12.4c-0.8,0-1.4-0.6-1.4-1.4V6.6c0-0.8,0.6-1.4,1.4-1.4s1.4,0.6,1.4,1.4V11     C50.5,11.8,49.9,12.4,49.1,12.4z"/>
		</g>
	</g>
	<g id="XMLID_34_">
		<g id="XMLID_35_">
			<path id="XMLID_86_" class="st0" d="M35.8,14.9c-0.6,0-1.1-0.4-1.3-0.9l-1.5-4.1C32.7,9.1,33,8.3,33.8,8c0.7-0.3,1.5,0.1,1.8,0.8     l1.5,4.1c0.3,0.7-0.1,1.5-0.8,1.8C36.1,14.8,35.9,14.9,35.8,14.9z"/>
		</g>
	</g>
	<g id="XMLID_36_">
		<g id="XMLID_37_">
			<path id="XMLID_85_" class="st0" d="M24.1,21.7c-0.4,0-0.8-0.2-1.1-0.5l-2.8-3.4c-0.5-0.6-0.4-1.5,0.2-2c0.6-0.5,1.5-0.4,2,0.2     l2.8,3.4c0.5,0.6,0.4,1.5-0.2,2C24.7,21.6,24.4,21.7,24.1,21.7z"/>
		</g>
	</g>
	<g id="XMLID_38_">
		<g id="XMLID_39_">
			<path id="XMLID_84_" class="st0" d="M15.4,32.1c-0.2,0-0.5-0.1-0.7-0.2l-3.8-2.2c-0.7-0.4-0.9-1.3-0.5-1.9     c0.4-0.7,1.3-0.9,1.9-0.5l3.8,2.2c0.7,0.4,0.9,1.3,0.5,1.9C16.4,31.9,15.9,32.1,15.4,32.1z"/>
		</g>
	</g>
	<g id="XMLID_40_">
		<g id="XMLID_41_">
			<path id="XMLID_83_" class="st0" d="M10.9,44.9c-0.1,0-0.2,0-0.2,0l-4.3-0.8C5.5,44,5,43.2,5.2,42.5c0.1-0.8,0.9-1.3,1.6-1.2     l4.3,0.8c0.8,0.1,1.3,0.9,1.2,1.6C12.2,44.4,11.6,44.9,10.9,44.9z"/>
		</g>
	</g>
	<g id="XMLID_42_">
		<g id="XMLID_43_">
			<path id="XMLID_82_" class="st0" d="M6.6,59.2c-0.7,0-1.3-0.5-1.4-1.2c-0.1-0.8,0.4-1.5,1.2-1.6l4.3-0.8c0.8-0.1,1.5,0.4,1.6,1.2     c0.1,0.8-0.4,1.5-1.2,1.6l-4.3,0.8C6.8,59.2,6.7,59.2,6.6,59.2z"/>
		</g>
	</g>
	<g id="XMLID_44_">
		<g id="XMLID_45_">
			<path id="XMLID_81_" class="st0" d="M11.9,73.3c-0.5,0-1-0.3-1.2-0.7c-0.4-0.7-0.2-1.5,0.5-1.9l3.8-2.2c0.7-0.4,1.5-0.2,1.9,0.5     c0.4,0.7,0.2,1.5-0.5,1.9l-3.8,2.2C12.3,73.3,12.1,73.3,11.9,73.3z"/>
		</g>
	</g>
	<g id="XMLID_46_">
		<g id="XMLID_47_">
			<path id="XMLID_80_" class="st0" d="M21.6,84.8c-0.3,0-0.6-0.1-0.9-0.3c-0.6-0.5-0.7-1.4-0.2-2l2.8-3.4c0.5-0.6,1.4-0.7,2-0.2     c0.6,0.5,0.7,1.4,0.2,2l-2.8,3.4C22.4,84.6,22,84.8,21.6,84.8z"/>
		</g>
	</g>
	<g id="XMLID_48_">
		<g id="XMLID_49_">
			<path id="XMLID_79_" class="st0" d="M34.7,92.3c-0.2,0-0.3,0-0.5-0.1c-0.7-0.3-1.1-1.1-0.8-1.8l1.5-4.1c0.3-0.7,1.1-1.1,1.8-0.8     c0.7,0.3,1.1,1.1,0.8,1.8L36,91.3C35.8,91.9,35.3,92.3,34.7,92.3z"/>
		</g>
	</g>
	<g id="XMLID_50_">
		<g id="XMLID_51_">
			<path id="XMLID_78_" class="st0" d="M49.5,94.8c-0.8,0-1.4-0.6-1.4-1.4V89c0-0.8,0.6-1.4,1.4-1.4c0.8,0,1.4,0.6,1.4,1.4v4.4     C51,94.2,50.3,94.8,49.5,94.8z"/>
		</g>
	</g>
	<g id="XMLID_52_">
		<g id="XMLID_53_">
			<path id="XMLID_77_" class="st0" d="M64.4,92.1c-0.6,0-1.1-0.4-1.3-0.9L61.5,87c-0.3-0.7,0.1-1.5,0.8-1.8     c0.7-0.3,1.5,0.1,1.8,0.8l1.5,4.1c0.3,0.7-0.1,1.5-0.8,1.8C64.7,92.1,64.5,92.1,64.4,92.1z"/>
		</g>
	</g>
	<g id="XMLID_54_">
		<g id="XMLID_55_">
			<path id="XMLID_76_" class="st0" d="M77.4,84.5c-0.4,0-0.8-0.2-1.1-0.5l-2.8-3.4c-0.5-0.6-0.4-1.5,0.2-2c0.6-0.5,1.5-0.4,2,0.2     l2.8,3.4c0.5,0.6,0.4,1.5-0.2,2C78,84.4,77.7,84.5,77.4,84.5z"/>
		</g>
	</g>
	<g id="XMLID_56_">
		<g id="XMLID_57_">
			<path id="XMLID_75_" class="st0" d="M87,72.9c-0.2,0-0.5-0.1-0.7-0.2l-3.8-2.2c-0.7-0.4-0.9-1.3-0.5-1.9c0.4-0.7,1.3-0.9,1.9-0.5     l3.8,2.2c0.7,0.4,0.9,1.3,0.5,1.9C88,72.6,87.5,72.9,87,72.9z"/>
		</g>
	</g>
	<g id="XMLID_58_">
		<g id="XMLID_59_">
			<path id="XMLID_74_" class="st0" d="M92.1,58.7c-0.1,0-0.2,0-0.2,0l-4.3-0.8c-0.8-0.1-1.3-0.9-1.2-1.6c0.1-0.8,0.9-1.3,1.6-1.2     l4.3,0.8c0.8,0.1,1.3,0.9,1.2,1.6C93.3,58.2,92.8,58.7,92.1,58.7z"/>
		</g>
	</g>
	<g id="XMLID_60_">
		<g id="XMLID_61_">
			<path id="XMLID_73_" class="st0" d="M87.7,44.4c-0.7,0-1.3-0.5-1.4-1.2c-0.1-0.8,0.4-1.5,1.2-1.6l4.3-0.8     c0.8-0.1,1.5,0.4,1.6,1.2c0.1,0.8-0.4,1.5-1.2,1.6l-4.3,0.8C87.8,44.4,87.7,44.4,87.7,44.4z"/>
		</g>
	</g>
	<g id="XMLID_62_">
		<g id="XMLID_63_">
			<path id="XMLID_72_" class="st0" d="M83,31.7c-0.5,0-1-0.3-1.2-0.7c-0.4-0.7-0.2-1.5,0.5-1.9l3.8-2.2c0.7-0.4,1.5-0.2,1.9,0.5     c0.4,0.7,0.2,1.5-0.5,1.9l-3.8,2.2C83.4,31.7,83.2,31.7,83,31.7z"/>
		</g>
	</g>
	<g id="XMLID_64_">
		<g id="XMLID_65_">
			<path id="XMLID_71_" class="st0" d="M74.2,21.4c-0.3,0-0.6-0.1-0.9-0.3c-0.6-0.5-0.7-1.4-0.2-2l2.8-3.4c0.5-0.6,1.4-0.7,2-0.2     c0.6,0.5,0.7,1.4,0.2,2l-2.8,3.4C75,21.2,74.6,21.4,74.2,21.4z"/>
		</g>
	</g>
	<g id="XMLID_66_">
		<g id="XMLID_67_">
			<path id="XMLID_70_" class="st0" d="M62.4,14.7c-0.2,0-0.3,0-0.5-0.1c-0.7-0.3-1.1-1.1-0.8-1.8l1.5-4.1c0.3-0.7,1.1-1.1,1.8-0.8     c0.7,0.3,1.1,1.1,0.8,1.8l-1.5,4.1C63.5,14.3,63,14.7,62.4,14.7z"/>
		</g>
	</g>
</g>
</svg>